<svg width="30" height="33" viewBox="0 0 30 33" fill="none" xmlns="http://www.w3.org/2000/svg">
<path d="M3.33333 33C2.41667 33 1.63194 32.6769 0.979167 32.0306C0.326389 31.3844 0 30.6075 0 29.7V6.6C0 5.6925 0.326389 4.91563 0.979167 4.26937C1.63194 3.62313 2.41667 3.3 3.33333 3.3H5V0H8.33333V3.3H21.6667V0H25V3.3H26.6667C27.5833 3.3 28.3681 3.62313 29.0208 4.26937C29.6736 4.91563 30 5.6925 30 6.6V29.7C30 30.6075 29.6736 31.3844 29.0208 32.0306C28.3681 32.6769 27.5833 33 26.6667 33H3.33333ZM3.33333 29.7H26.6667V13.2H3.33333V29.7ZM3.33333 9.9H26.6667V6.6H3.33333V9.9Z" fill="white"/>
</svg>
